<svg xmlns="http://www.w3.org/2000/svg" viewBox="0 0 25 16" class="w-6" fill="currentColor">
    <path
        d="M0.428711 14.171C0.428711 15.1811 1.25257 15.9999 2.26892 15.9999H23.1598C24.1762 15.9999 25.0001 15.1811 25.0001 14.171V12H0.428711V14.171Z"
        fill="#FF4B55"></path>
    <path
        d="M23.1598 -0.00012207H2.26892C1.25257 -0.00012207 0.428711 0.81869 0.428711 1.82881V7.99979H25.0001V1.82881C25.0001 0.81869 24.1762 -0.00012207 23.1598 -0.00012207Z"
        fill="#FFE15A"></path>
    <path d="M25.0001 7.99997H0.428711V11.9998H25.0001V7.99997Z" fill="#41479B"></path>
    <path
        d="M12.2722 8.23621L15.3667 5.6001V9.41523C15.3667 10.0582 14.8422 10.5794 14.1953 10.5794C13.9059 10.5794 13.6268 10.473 13.4117 10.2806L12.2722 9.26141V8.23621Z"
        fill="#FFE15A"></path>
    <path
        d="M13.9048 9.73638L13.0093 8.93536V7.60867L14.6302 6.22784V7.19232V9.41533C14.6302 9.65353 14.4352 9.84727 14.1956 9.84727C14.088 9.84727 13.9847 9.80788 13.9048 9.73638Z"
        fill="#FF4B55"></path>
    <path
        d="M13.4513 7.23201V8.74004L14.1881 9.40121V7.18307V6.60446L14.6302 6.22784V7.19232V9.41533C14.6302 9.65353 14.4352 9.84727 14.1956 9.84727C14.088 9.84727 13.9847 9.80793 13.9048 9.73638L13.0093 8.93536V7.60867L13.4513 7.23201Z"
        fill="#41479B"></path>
    <path
        d="M13.1567 8.23621L10.0623 5.6001V9.41523C10.0623 10.0582 10.5867 10.5794 11.2336 10.5794C11.523 10.5794 11.8022 10.473 12.0173 10.2806L13.1567 9.26141V8.23621Z"
        fill="#FFE15A"></path>
    <path
        d="M11.5247 9.73638L12.4202 8.93536V7.60867L10.7993 6.22784V7.19232V9.41533C10.7993 9.65353 10.9943 9.84727 11.2339 9.84727C11.3415 9.84727 11.4447 9.80788 11.5247 9.73638Z"
        fill="#FF4B55"></path>
    <path
        d="M11.9767 7.23204V8.74007L11.2399 9.40125V7.1831V6.60449L10.7979 6.22787V7.19235V9.41536C10.7979 9.65356 10.9928 9.84731 11.2325 9.84731C11.34 9.84731 11.4433 9.80796 11.5232 9.73641L12.4187 8.93539V7.6087L11.9767 7.23204Z"
        fill="#41479B"></path>
    <path d="M15.4706 5.61316H15.2588V6.87469H15.4706V5.61316Z" fill="#41479B"></path>
    <path d="M10.1669 5.61343H9.95508V6.87497H10.1669V5.61343Z" fill="#41479B"></path>
    <path
        d="M12.2725 5.01531C12.2725 5.01531 12.5672 3.624 11.5358 3.80711C10.5043 3.99017 10.5043 4.28302 9.32544 4.86889C9.32544 4.86889 10.6517 5.16179 11.241 5.01536C11.241 5.01536 11.6831 5.60113 12.1252 5.7476H12.5673L12.2725 5.01531Z"
        fill="#5A4646"></path>
    <path
        d="M13.1566 5.01544C13.1566 5.01544 12.8619 3.62412 13.8933 3.80723C14.9248 3.99029 14.9248 4.28315 16.1036 4.86901C16.1036 4.86901 14.7774 5.16191 14.188 5.01548C14.188 5.01548 13.746 5.60125 13.3039 5.74773H12.8618L13.1566 5.01544Z"
        fill="#5A4646"></path>
    <path
        d="M13.1564 5.74755H12.2722V5.00987C12.2722 4.7702 12.4677 4.57593 12.7088 4.57593H12.7197C12.9608 4.57593 13.1563 4.7702 13.1563 5.00987V5.74755H13.1564Z"
        fill="#5A4646"></path>
    <path
        d="M12.7144 5.30728C12.8772 5.30728 13.0091 5.17614 13.0091 5.01437C13.0091 4.8526 12.8772 4.72147 12.7144 4.72147C12.5516 4.72147 12.4197 4.8526 12.4197 5.01437C12.4197 5.17614 12.5516 5.30728 12.7144 5.30728Z"
        fill="#E6E1CD"></path>
    <path
        d="M12.0825 4.82505L12.6366 5.11914C12.6831 5.14385 12.7404 5.13536 12.7776 5.0983C12.8243 5.05184 12.8243 4.97658 12.7776 4.93007L12.4201 4.57483H12.3342C12.1952 4.57483 12.0825 4.68682 12.0825 4.82505Z"
        fill="#FFD0AF"></path>
    <path
        d="M12.2739 4.86769H11.8301L12.0243 4.6417C12.0608 4.59925 12.1141 4.57483 12.1703 4.57483H12.4195V4.72307C12.4195 4.80292 12.3543 4.86769 12.2739 4.86769Z"
        fill="#FFAF94"></path>
    <path
        d="M13.9714 5.74688C13.8719 5.62965 13.8507 5.4742 13.8992 5.3395C14.041 5.31489 14.1915 5.36197 14.2909 5.4793C14.3759 5.57952 14.4005 5.70691 14.3765 5.82616C14.406 5.87586 14.442 5.93977 14.4816 6.01523C14.4835 6.00449 14.4831 5.99386 14.4862 5.98313C14.5209 5.86169 14.6178 5.77574 14.7326 5.74665C14.8148 5.83145 14.8518 5.95522 14.817 6.07661C14.7872 6.18107 14.7102 6.25676 14.6164 6.29511C14.6534 6.37949 14.69 6.47049 14.7243 6.56651C14.7262 6.56088 14.7264 6.55516 14.7287 6.54957C14.7767 6.43267 14.8825 6.35788 14.9998 6.34152C15.0721 6.43477 15.0951 6.56183 15.0472 6.67874C15.0052 6.781 14.9181 6.84844 14.8186 6.8753C14.8698 7.07624 14.9038 7.28945 14.9038 7.50409H14.7564C14.7564 7.31702 14.7275 7.12966 14.6839 6.95042C14.5929 6.97961 14.4913 6.97336 14.4034 6.91985C14.296 6.8545 14.2394 6.73965 14.2421 6.62303C14.3454 6.5677 14.4741 6.56565 14.5814 6.63104C14.5853 6.63343 14.5879 6.63681 14.5916 6.63929C14.56 6.54915 14.5264 6.46362 14.4919 6.3834C14.4035 6.42494 14.2994 6.43133 14.2039 6.38679C14.09 6.33365 14.021 6.22562 14.0107 6.10943C14.107 6.04332 14.2342 6.02729 14.3477 6.07986C14.3071 6.00235 14.2706 5.93748 14.2419 5.88897C14.1404 5.87733 14.0426 5.83088 13.9714 5.74688Z"
        fill="#8CB400"></path>
    <path
        d="M11.4582 5.74688C11.5576 5.62965 11.5788 5.4742 11.5304 5.3395C11.3886 5.31489 11.238 5.36197 11.1387 5.4793C11.0537 5.57952 11.0291 5.70691 11.053 5.82616C11.0236 5.87586 10.9876 5.93977 10.948 6.01523C10.946 6.00449 10.9464 5.99386 10.9434 5.98313C10.9086 5.86169 10.8117 5.77574 10.6969 5.74665C10.6147 5.83145 10.5778 5.95522 10.6125 6.07661C10.6424 6.18107 10.7194 6.25676 10.8131 6.29511C10.7761 6.37949 10.7395 6.47049 10.7053 6.56651C10.7033 6.56088 10.7032 6.55516 10.7009 6.54957C10.6529 6.43267 10.547 6.35788 10.4297 6.34152C10.3575 6.43477 10.3344 6.56183 10.3824 6.67874C10.4244 6.781 10.5115 6.84844 10.611 6.8753C10.5598 7.07624 10.5259 7.28945 10.5259 7.50408H10.6732C10.6732 7.31702 10.7021 7.12966 10.7457 6.95042C10.8367 6.97961 10.9383 6.97336 11.0262 6.91985C11.1336 6.8545 11.1901 6.73965 11.1875 6.62303C11.0841 6.5677 10.9555 6.56565 10.8482 6.63104C10.8443 6.63343 10.8417 6.63681 10.8379 6.63929C10.8695 6.54915 10.9031 6.46362 10.9376 6.3834C11.0261 6.42494 11.1302 6.43133 11.2257 6.38678C11.3396 6.33365 11.4086 6.22562 11.4189 6.10943C11.3226 6.04332 11.1954 6.02729 11.0818 6.07986C11.1224 6.00235 11.159 5.93748 11.1877 5.88897C11.2892 5.87733 11.387 5.83088 11.4582 5.74688Z"
        fill="#8CB400"></path>
    <path
        d="M12.7146 8.96839L9.62012 6.33228V10.1474C9.62012 10.7904 10.1446 11.3116 10.7915 11.3116C11.0809 11.3116 11.36 11.2051 11.5751 11.0128L12.7146 9.99358V8.96839Z"
        fill="#FFE15A"></path>
    <path
        d="M11.0826 10.4685L11.9781 9.66751V8.34082L10.3572 6.95999V7.92447V10.1475C10.3572 10.3857 10.5522 10.5794 10.7918 10.5794C10.8994 10.5794 11.0026 10.5401 11.0826 10.4685Z"
        fill="#FF4B55"></path>
    <path
        d="M11.536 7.9642V9.47223L10.7993 10.1334V7.91526V7.33661L10.3572 6.95999V7.92447V10.1475C10.3572 10.3857 10.5522 10.5794 10.7918 10.5794C10.8993 10.5794 11.0026 10.5401 11.0826 10.4685L11.9781 9.66751V8.34082L11.536 7.9642Z"
        fill="#41479B"></path>
    <path
        d="M12.7144 8.96839L15.8088 6.33228V10.1474C15.8088 10.7904 15.2843 11.3116 14.6374 11.3116C14.3481 11.3116 14.0689 11.2051 13.8538 11.0128L12.7144 9.99358V8.96839Z"
        fill="#FFE15A"></path>
    <path
        d="M14.3469 10.4685L13.4514 9.66751V8.34082L15.0723 6.95999V7.92447V10.1475C15.0723 10.3857 14.8773 10.5794 14.6377 10.5794C14.5302 10.5794 14.4269 10.5401 14.3469 10.4685Z"
        fill="#FF4B55"></path>
    <path
        d="M13.8935 7.9642V9.47223L14.6302 10.1334V7.91526V7.33661L15.0723 6.95999V7.92447V10.1475C15.0723 10.3857 14.8773 10.5794 14.6377 10.5794C14.5302 10.5794 14.4269 10.5401 14.3469 10.4685L13.4514 9.66751V8.34082L13.8935 7.9642Z"
        fill="#41479B"></path>
    <path
        d="M12.714 10.1402C13.5279 10.1402 14.1876 9.15658 14.1876 7.94326C14.1876 6.72993 13.5279 5.74634 12.714 5.74634C11.9002 5.74634 11.2405 6.72993 11.2405 7.94326C11.2405 9.15658 11.9002 10.1402 12.714 10.1402Z"
        fill="#69C3FF"></path>
    <path
        d="M11.3879 8.52931H14.0403L14.1877 7.94354L13.5161 8.05482C13.3814 8.07714 13.2437 8.03899 13.1399 7.95065L12.3777 7.30126C12.3096 7.24326 12.2227 7.2113 12.133 7.2113C12.0334 7.2113 11.9377 7.25065 11.8673 7.32072L11.3879 7.79712V8.52931V8.52931Z"
        fill="#009B64"></path>
    <path
        d="M12.5744 7.84492L12.8275 7.68418L12.3777 7.30098C12.3096 7.24299 12.2227 7.21103 12.133 7.21103C12.0334 7.21103 11.9377 7.25038 11.8673 7.32045L11.3879 7.79684V7.94332L12.1247 7.79684L12.2549 7.86157C12.357 7.91232 12.4783 7.90593 12.5744 7.84492Z"
        fill="#F5F5F5"></path>
    <path
        d="M11.3879 8.52927L11.5353 9.40794L12.2721 10.1402H12.7142L13.3035 9.9938L13.893 9.40794L14.0404 8.52927H11.3879Z"
        fill="#5AA0E6"></path>
    <path
        d="M12.7139 10.2866C11.8201 10.2866 11.093 9.23541 11.093 7.94335C11.093 6.65129 11.8201 5.6001 12.7139 5.6001C13.6077 5.6001 14.3348 6.65129 14.3348 7.94335C14.3348 9.23541 13.6077 10.2866 12.7139 10.2866ZM12.7139 5.8931C11.9827 5.8931 11.3877 6.81289 11.3877 7.9434C11.3877 9.07391 11.9826 9.99374 12.7139 9.99374C13.4452 9.99374 14.0401 9.07396 14.0401 7.9434C14.0401 6.81284 13.4451 5.8931 12.7139 5.8931Z"
        fill="#FFC88C"></path>
    <path
        d="M11.6755 10.1272C11.5519 9.95764 11.368 9.84741 11.1598 9.84741C10.9515 9.84741 10.7676 9.95764 10.644 10.1272C10.8547 10.1852 11.0271 10.3552 11.1087 10.5793C11.1416 10.6695 11.1598 10.7685 11.1598 10.8726C11.1598 10.5103 11.38 10.2085 11.6755 10.1272Z"
        fill="#E1E1E1"></path>
    <path
        d="M11.2773 10.5889C11.2773 10.5889 11.2657 10.7841 11.1651 10.8757L11.1608 10.8722C11.0601 10.7807 11.0486 10.5854 11.0486 10.5854L11.2773 10.5889Z"
        fill="#E1E1E1"></path>
    <path
        d="M14.5578 10.6528H10.8721C10.8319 10.6528 10.7993 10.6204 10.7993 10.5805V10.5787C10.7993 10.5387 10.8319 10.5063 10.8721 10.5063H14.5578C14.598 10.5063 14.6305 10.5387 14.6305 10.5787V10.5805C14.6305 10.6204 14.598 10.6528 14.5578 10.6528Z"
        fill="#966446"></path>
    <path
        d="M13.4545 10.8724H11.9737C11.813 10.8724 11.6826 10.7429 11.6826 10.5831V10.5759C11.6826 10.4161 11.813 10.2866 11.9737 10.2866H13.4545C13.6153 10.2866 13.7456 10.4161 13.7456 10.5759V10.5831C13.7456 10.7429 13.6153 10.8724 13.4545 10.8724Z"
        fill="#BE915A"></path>
    <path
        d="M11.3887 10.5063H10.873C10.8323 10.5063 10.7993 10.5391 10.7993 10.5796C10.7993 10.62 10.8323 10.6528 10.873 10.6528H11.3887V10.5063Z"
        fill="#B9B9B9"></path>
    <path d="M12.7141 10.8724V12.2105L12.1248 12.044L12.4194 10.8724H12.7141Z" fill="#FF4B55"></path>
    <path d="M12.5667 10.8724L12.272 11.8976L11.6826 11.7511L12.1247 10.8724H12.5667Z"
        fill="#41479B"></path>
    <path d="M11.9772 10.8724L11.5352 11.4582L11.9772 11.6046L12.2719 10.8724H11.9772Z"
        fill="#FFE15A"></path>
    <path d="M12.7144 10.8724V12.2105L13.3037 12.044L13.0091 10.8724H12.7144Z" fill="#FF4B55"></path>
    <path d="M12.8618 10.8724L13.1565 11.8976L13.7459 11.7511L13.3038 10.8724H12.8618Z"
        fill="#41479B"></path>
    <path d="M13.4514 10.8724L13.8935 11.4582L13.4514 11.6046L13.1567 10.8724H13.4514Z"
        fill="#FFE15A"></path>
</svg>