<svg xmlns="http://www.w3.org/2000/svg" width="166" height="32" fill="none" viewBox="0 0 166 32"><path fill="#FF2400" fill-rule="evenodd" d="M10.096 16.704a5.935 5.935 0 0 0 11.837-.607 5.933 5.933 0 1 0-11.867 0c0 .204.01.407.03.607ZM0 16a16 16 0 1 1 32 0 16 16 0 0 1-32 0" clip-rule="evenodd"/><path fill="#333" d="M51.817 15.892c0 4.866-3.377 6.987-6.565 6.987-3.567 0-6.319-2.61-6.319-6.77 0-4.404 2.887-6.986 6.537-6.986 3.787 0 6.347 2.745 6.347 6.77Zm-10.46.136c0 2.882 1.662 5.057 4.005 5.057 2.288 0 4.004-2.148 4.004-5.11 0-2.23-1.118-5.058-3.95-5.058-2.833 0-4.059 2.61-4.059 5.11ZM65.874 18.991c0 1.36.026 2.558.109 3.589h-2.125l-.136-2.148h-.055a4.955 4.955 0 0 1-4.357 2.447c-2.071 0-4.55-1.141-4.55-5.765V9.422h2.398v7.286c0 2.501.763 4.186 2.942 4.186a3.47 3.47 0 0 0 3.16-2.175c.144-.391.218-.805.217-1.223V9.422h2.397v9.57ZM78.165 20.133c.949.593 2.04.923 3.159.954 1.743 0 2.562-.87 2.562-1.957 0-1.142-.68-1.768-2.451-2.42-2.37-.843-3.487-2.148-3.487-3.725 0-2.12 1.717-3.86 4.55-3.86a6.592 6.592 0 0 1 3.24.816l-.598 1.74a5.132 5.132 0 0 0-2.697-.762c-1.417 0-2.207.816-2.207 1.795 0 1.087.79 1.576 2.507 2.229 2.288.87 3.458 2.011 3.458 3.97 0 2.31-1.797 3.969-4.93 3.969a7.514 7.514 0 0 1-3.704-.926l.598-1.823ZM101.592 20.133c.949.593 2.04.922 3.16.954 1.742 0 2.562-.87 2.562-1.957 0-1.142-.681-1.768-2.451-2.42-2.37-.843-3.486-2.148-3.486-3.725 0-2.12 1.715-3.86 4.547-3.86a6.592 6.592 0 0 1 3.242.816l-.599 1.74a5.134 5.134 0 0 0-2.697-.762c-1.417 0-2.207.816-2.207 1.795 0 1.087.79 1.576 2.507 2.229 2.288.87 3.459 2.011 3.459 3.97 0 2.31-1.798 3.969-4.93 3.969a7.515 7.515 0 0 1-3.704-.926l.597-1.823ZM134.68 12.983c0-1.36-.027-2.475-.108-3.56h2.096l.109 2.119h.081a4.544 4.544 0 0 1 4.141-2.42 3.901 3.901 0 0 1 3.731 2.638h.055a5.423 5.423 0 0 1 1.471-1.713 4.51 4.51 0 0 1 2.914-.924c1.744 0 4.331 1.142 4.331 5.71v7.747h-2.342v-7.45c0-2.528-.926-4.05-2.86-4.05a3.097 3.097 0 0 0-2.833 2.175c-.125.387-.189.79-.191 1.196v8.13h-2.342v-7.885c0-2.094-.926-3.616-2.751-3.616-1.498 0-2.588 1.197-2.969 2.393a3.286 3.286 0 0 0-.191 1.17v7.937h-2.343l.001-9.597ZM157.038 20.133c.949.593 2.04.923 3.16.954 1.742 0 2.562-.87 2.562-1.957 0-1.142-.681-1.768-2.451-2.42-2.373-.845-3.489-2.15-3.489-3.727 0-2.12 1.716-3.86 4.549-3.86a6.592 6.592 0 0 1 3.241.816l-.599 1.74a5.133 5.133 0 0 0-2.697-.762c-1.416 0-2.206.815-2.206 1.795 0 1.087.79 1.576 2.506 2.229 2.286.87 3.458 2.013 3.458 3.97 0 2.31-1.798 3.968-4.929 3.968a7.52 7.52 0 0 1-3.705-.925l.6-1.82ZM97.333 9.585l-2.616 7.542c-.326.954-.598 2.197-.844 2.572h-.054c-.217-.375-.545-1.647-.845-2.514l-2.887-7.6h-2.615l4.877 12.043c.084.185.14.383.162.585a1.64 1.64 0 0 1-.19.552 7.197 7.197 0 0 1-2.016 2.653 6.307 6.307 0 0 1-2.097 1.163l.651 2a6.556 6.556 0 0 0 2.89-1.541c1.634-1.413 2.805-3.643 4.521-8.157l3.596-9.298h-2.533ZM131.63 16.329c.064-.353.091-.71.082-1.068 0-2.425-1.147-6.189-5.461-6.189-3.85 0-6.198 3.147-6.198 7.126 0 3.978 2.432 6.682 6.498 6.682 1.503.013 2.989-.31 4.35-.947l-.599-1.82c-2.01.816-3.512.979-4.635.766a4.476 4.476 0 0 1-1.303-.49c-1.777-1.088-1.991-3.43-2.016-3.92l-.003-.142 9.285.002Zm-5.57-5.396c2.703 0 3.358 2.397 3.331 3.896h-7.017c.191-1.499 1.256-3.896 3.686-3.896ZM75.208 20.158a3.164 3.164 0 0 1-1.492.592c-.83-.013-1.402-.586-1.402-2.193v-7.475h3.379V9.585h-3.379v-4.83L69.686 6.54v11.877c0 1.55.388 2.719 1.069 3.425.386.405.875.7 1.414.853a3.9 3.9 0 0 0 3.611-.72l-.572-1.818ZM118.019 20.158a3.2 3.2 0 0 1-1.499.592c-.829-.013-1.408-.586-1.408-2.193v-7.475h3.379V9.585h-3.379v-4.83l-2.627 1.786v11.877c0 1.55.393 2.719 1.074 3.425.388.405.877.7 1.418.853a3.902 3.902 0 0 0 3.612-.72l-.57-1.818Z"/></svg>