<svg width="191" height="74" viewBox="0 0 191 74" fill="none" xmlns="http://www.w3.org/2000/svg">
<path d="M16.2049 69.2701H6.33607L4.64755 73.6554H0L8.96722 51.1554H13.582L22.5492 73.6554H17.8607L16.2131 69.2701H16.2049ZM11.2951 56.0652L7.62296 65.6636H14.9017L11.3033 56.0652H11.2951Z" fill="#003057"/>
<path d="M23.8198 63.8685V51.1554H28.2461V63.8685C28.2461 67.2455 29.9674 69.7537 33.4592 69.7537C36.951 69.7537 38.7133 67.2373 38.7133 63.8685V51.1554H43.0985V63.8685C43.0985 69.7209 39.5329 73.9914 33.4592 73.9914C27.3854 73.9914 23.8198 69.7127 23.8198 63.8685Z" fill="#003057"/>
<path d="M54.3115 69.9098C56.8279 69.9098 57.9508 68.9344 57.9508 67.4344C57.9508 65.9344 57.0164 65.2213 53.3033 64.0984C48.4262 62.6394 45.877 60.8361 45.877 57.4181C45.877 53.4836 48.7623 50.9672 54.3197 50.9672C59.8771 50.9672 62.3853 53.2951 62.3853 53.2951L60.0246 56.8935C60.0246 56.8935 57.8115 54.9836 54.3197 54.9836C52.0328 54.9836 50.8279 55.7377 50.8279 57.1967C50.8279 58.3935 51.9508 59.0738 55.2541 60.0492C60.5082 61.5492 62.9426 63.5 62.9426 67.0656C62.9426 70.9262 60.2049 73.9672 54.4672 73.9672C48.7295 73.9672 45.6147 71.1148 45.6147 71.1148L47.9754 67.7377C47.9754 67.7377 50.8607 69.9098 54.3115 69.9098Z" fill="#003057"/>
<path d="M81.9917 55.016H75.2048V73.6554H70.8113V55.016H64.0654V51.1554H81.9917V55.016Z" fill="#003057"/>
<path d="M102.697 58.6965C102.697 62.0326 100.894 64.4342 98.156 65.5244V65.8276L103.41 73.1801V73.6637H98.5002L93.4019 66.2375H88.9428V73.6637H84.5166V51.1637H94.0412C99.2953 51.1637 102.705 54.1309 102.705 58.7047M93.8199 55.0326H88.9428V62.4588H93.9346C96.3691 62.4588 98.1723 61.2211 98.1723 58.7457C98.1723 56.2703 96.4101 55.0326 93.8199 55.0326Z" fill="#003057"/>
<path d="M104.681 62.4099C104.681 56.2213 109.254 50.9672 116.041 50.9672C122.828 50.9672 127.484 56.2213 127.484 62.4099C127.484 68.5984 122.91 74 116.041 74C109.172 74 104.681 68.7132 104.681 62.4099ZM122.943 62.4099C122.943 58.3607 120.091 55.1722 116.041 55.1722C111.992 55.1722 109.213 58.3607 109.213 62.4099C109.213 66.4591 112.066 69.7623 116.041 69.7623C120.017 69.7623 122.943 66.5738 122.943 62.4099Z" fill="#003057"/>
<path d="M148.082 58.5816C148.082 62.3685 145.942 64.7701 142.721 65.6308V65.7045L148.5 73.1308V73.6554H146.328L140.287 66.0078H133.123V73.6554H130.983V51.1554H139.574C144.934 51.1554 148.09 53.8193 148.09 58.5816M139.574 53.139H133.123V64.016H139.91C143.36 64.016 145.91 62.2537 145.91 58.6554C145.91 55.057 143.393 53.139 139.574 53.139Z" fill="#003057"/>
<path d="M154.492 63.2701V71.6718H167.926V73.6554H152.361V51.1554H167.926V53.139H154.492V61.2783H166.049V63.2701H154.492Z" fill="#003057"/>
<path d="M178.91 73.6554H171.746V51.1554H178.91C185.664 51.1554 190.459 55.4341 190.459 62.4095C190.459 69.3849 185.656 73.6636 178.91 73.6636M173.885 71.6718H178.836C184.164 71.6718 188.287 68.2209 188.287 62.4095C188.287 56.598 184.123 53.1472 178.836 53.1472H173.885V71.6718Z" fill="#003057"/>
<path d="M157.344 42.5327H147.14C147.14 33.6229 139.885 26.3688 130.976 26.3688V16.1639C145.517 16.1639 157.344 27.9918 157.344 42.5327Z" fill="#FFB71B"/>
<path d="M130.976 32.3195C136.616 32.3195 141.182 36.8938 141.182 42.5255H130.976V32.3195Z" fill="#FFB71B"/>
<path d="M173.508 42.5328H163.303C163.303 24.7131 148.803 10.2131 130.983 10.2131V0C154.434 0 173.516 19.082 173.516 42.5328" fill="#EA0029"/>
</svg>
