<svg width="46" height="73" viewBox="0 0 46 73" xmlns="http://www.w3.org/2000/svg">
<path fill="currentColor"  fill-rule="evenodd" clip-rule="evenodd"
        d="M4.88849 20.4576C5.09061 23.18 6.41722 25.6205 7.56351 26.9866L22.5749 44.8764L29.0806 39.4175L7.34413 13.5129C5.25088 15.8894 4.72949 18.3161 4.88849 20.4576ZM25.3042 48.1291L31.81 42.6702L38.6333 50.8019L38.633 50.8022C39.7793 52.1683 41.1059 54.6088 41.308 57.3311C41.467 59.4725 40.9457 61.8991 38.8527 64.2755L25.3042 48.1291ZM45.5425 57.0168C45.2604 53.217 43.4689 49.9598 41.8859 48.0731L41.8863 48.0728L35.0335 39.9061C42.0228 33.5 44.8116 26.9933 45.1974 21.2315C45.6021 15.1878 43.3428 10.2218 41.0067 7.39083C38.8374 4.2068 34.3056 1.04729 28.243 0.428635C22.0405 -0.2043 14.4263 1.82833 6.14315 8.77873L7.50782 10.4051L7.50747 10.4054L6.14257 8.77875C1.70926 12.4987 0.36204 16.8391 0.654038 20.772C0.936161 24.5719 2.72776 27.8293 4.31081 29.7159L19.3973 47.6953C16.1977 51.0636 15.2053 54.804 15.46 58.2344C15.7421 62.0343 17.5337 65.2917 19.1168 67.1783C20.6998 69.0649 23.5966 71.3949 27.2898 72.3326C31.1123 73.3031 35.6206 72.73 40.0539 69.01C44.4872 65.29 45.8345 60.9497 45.5425 57.0168ZM10.5298 10.7037L32.3014 36.6501C38.5143 30.9067 40.6617 25.4148 40.9608 20.9478C41.2892 16.0439 39.4116 12.0948 37.6797 10.0309L37.6041 9.94079L37.539 9.84292C36.1294 7.72613 32.7295 5.15462 27.8119 4.6528C23.3276 4.1952 17.4112 5.4522 10.5298 10.7037ZM22.1498 50.9756C20.0568 53.352 19.5355 55.7786 19.6945 57.92C19.8966 60.6424 21.2232 63.0828 22.3695 64.4489C23.5158 65.815 25.6888 67.5453 28.3347 68.217C30.416 68.7455 32.8962 68.6534 35.6 67.0049L22.1498 50.9756Z"
    />
</svg>
