<svg width="46" height="73" viewBox="0 0 46 73" fill="none"
    xmlns="http://www.w3.org/2000/svg">
<path fill-rule="evenodd" clip-rule="evenodd" d="M28.2423 0.428683C34.3049 1.04734 38.8367 4.20684 41.006 7.39088C43.3421 10.2218 45.6014 15.1879 45.1967 21.2315C44.8109 26.9934 42.0221 33.5001 35.0328 39.9061L41.8856 48.0729L38.6329 50.8022L31.8096 42.6706L25.3043 48.1292L38.8527 64.2756C40.9457 61.8992 41.4671 59.4726 41.3081 57.3312C41.106 54.6088 39.7794 52.1684 38.6331 50.8023L41.8858 48.0729C43.4688 49.9595 45.2604 53.2169 45.5425 57.0168C45.8345 60.9497 44.4873 65.2901 40.054 69.0101C35.6207 72.73 31.1124 73.3031 27.2899 72.3326C23.5967 71.3949 20.6999 69.0649 19.1169 67.1783C17.5338 65.2917 15.7422 62.0343 15.4601 58.2344C15.2054 54.804 16.1978 51.0636 19.3974 47.6953L4.31088 29.716C2.72783 27.8293 0.936235 24.572 0.654112 20.7721C0.362115 16.8392 1.70932 12.4988 6.14254 8.77889L6.14245 8.77878C14.4256 1.82838 22.0398 -0.204252 28.2423 0.428683ZM10.5291 10.7037C17.4105 5.45225 23.3269 4.19525 27.8112 4.65285C32.7288 5.15467 36.1287 7.72618 37.5383 9.84297L37.6034 9.94084L37.679 10.0309C39.4109 12.0949 41.2885 16.0439 40.9601 20.9478C40.661 25.4149 38.5136 30.9067 32.3007 36.6501L10.5291 10.7037ZM4.88856 20.4577C5.09068 23.1801 6.41729 25.6205 7.56358 26.9866L22.575 44.8765L29.0803 39.4179L7.34381 13.5134C5.25089 15.8898 4.72958 18.3163 4.88856 20.4577ZM22.1499 50.9756C20.0569 53.3521 19.5355 55.7786 19.6945 57.92C19.8967 60.6424 21.2233 63.0829 22.3696 64.449C23.5158 65.8151 25.6889 67.5453 28.3348 68.2171C30.416 68.7455 32.8963 68.6535 35.6 67.0049L22.1499 50.9756Z" />
    <style>
    path {fill: black}

    @media(prefers-color-scheme: dark){
        path {fill: #fff}
    }
    </style>
</svg>
